<svg width="32" height="32" viewBox="0 0 32 32" fill="none" xmlns="http://www.w3.org/2000/svg">
<rect x="0.0292969" y="0.265625" width="31.6081" height="31.6081" rx="15.804" fill="url(#paint0_radial_1703_2413)"/>
<path fill-rule="evenodd" clip-rule="evenodd" d="M7.93164 16.0695C7.93164 12.913 7.93164 11.3347 8.68382 10.1979C9.0197 9.69028 9.45444 9.25554 9.96207 8.91966C11.0989 8.16748 12.6771 8.16748 15.8337 8.16748C18.9902 8.16748 20.5685 8.16748 21.7053 8.91966C22.2129 9.25554 22.6476 9.69028 22.9835 10.1979C23.7357 11.3347 23.7357 12.913 23.7357 16.0695C23.7357 19.226 23.7357 20.8043 22.9835 21.9411C22.6476 22.4487 22.2129 22.8835 21.7053 23.2193C20.5685 23.9715 18.9902 23.9715 15.8337 23.9715C12.6771 23.9715 11.0989 23.9715 9.96207 23.2193C9.45444 22.8835 9.0197 22.4487 8.68382 21.9411C7.93164 20.8043 7.93164 19.226 7.93164 16.0695ZM19.9244 16.0698C19.9244 18.3292 18.0928 20.1608 15.8334 20.1608C13.574 20.1608 11.7424 18.3292 11.7424 16.0698C11.7424 13.8104 13.574 11.9788 15.8334 11.9788C18.0928 11.9788 19.9244 13.8104 19.9244 16.0698ZM15.8334 18.7767C17.3283 18.7767 18.5403 17.5648 18.5403 16.0698C18.5403 14.5748 17.3283 13.3629 15.8334 13.3629C14.3384 13.3629 13.1265 14.5748 13.1265 16.0698C13.1265 17.5648 14.3384 18.7767 15.8334 18.7767ZM20.0861 12.7344C20.617 12.7344 21.0473 12.304 21.0473 11.7731C21.0473 11.2422 20.617 10.8119 20.0861 10.8119C19.5552 10.8119 19.1248 11.2422 19.1248 11.7731C19.1248 12.304 19.5552 12.7344 20.0861 12.7344Z" fill="white"/>
<defs>
<radialGradient id="paint0_radial_1703_2413" cx="0" cy="0" r="1" gradientUnits="userSpaceOnUse" gradientTransform="translate(8.42524 34.3082) rotate(-90) scale(31.326 29.1356)">
<stop stop-color="#FFDD55"/>
<stop offset="0.1" stop-color="#FFDD55"/>
<stop offset="0.5" stop-color="#FF543E"/>
<stop offset="1" stop-color="#C837AB"/>
</radialGradient>
</defs>
</svg>
