<svg width="33" height="32" viewBox="0 0 33 32" fill="none" xmlns="http://www.w3.org/2000/svg">
<rect x="0.856934" y="0.265625" width="31.6081" height="31.6081" rx="15.804" fill="#0A66C2"/>
<path d="M8.75879 10.2923C8.75879 9.78555 8.93677 9.36746 9.29271 9.03806C9.64865 8.70864 10.1114 8.54395 10.6809 8.54395C11.2403 8.54395 11.6928 8.70611 12.0386 9.03046C12.3945 9.36493 12.5725 9.80076 12.5725 10.338C12.5725 10.8245 12.3996 11.2299 12.0538 11.5542C11.6979 11.8887 11.2301 12.056 10.6504 12.056H10.6351C10.0758 12.056 9.62324 11.8887 9.27745 11.5542C8.93167 11.2198 8.75879 10.7991 8.75879 10.2923ZM8.9571 23.5954V13.4395H12.3437V23.5954H8.9571ZM14.22 23.5954H17.6066V17.9245C17.6066 17.5697 17.6473 17.2961 17.7287 17.1035C17.871 16.7589 18.0871 16.4675 18.377 16.2293C18.6668 15.9911 19.0304 15.872 19.4677 15.872C20.6067 15.872 21.1763 16.6373 21.1763 18.1678V23.5954H24.5628V17.7725C24.5628 16.2724 24.2069 15.1347 23.495 14.3593C22.7831 13.5839 21.8424 13.1962 20.6728 13.1962C19.3609 13.1962 18.3388 13.7587 17.6066 14.8838V14.9142H17.5914L17.6066 14.8838V13.4395H14.22C14.2404 13.7638 14.2505 14.7723 14.2505 16.465C14.2505 18.1576 14.2404 20.5344 14.22 23.5954Z" fill="white"/>
</svg>
