<svg width="32" height="32" viewBox="0 0 32 32" fill="none" xmlns="http://www.w3.org/2000/svg">
<rect x="0.20166" y="0.265625" width="31.6081" height="31.6081" rx="15.804" fill="#2494FB"/>
<path d="M18.6633 9.66154V9.65869H19.4043L19.6751 9.71277C19.8556 9.74788 20.0195 9.79389 20.1667 9.85081C20.314 9.90773 20.4565 9.97415 20.5943 10.05C20.732 10.1259 20.857 10.2033 20.9691 10.282C21.0802 10.3598 21.18 10.4424 21.2683 10.5296C21.3557 10.6179 21.4921 10.6406 21.6773 10.5979C21.8626 10.5552 22.0621 10.4959 22.2759 10.4201C22.4896 10.3442 22.701 10.2588 22.91 10.1639C23.119 10.069 23.2463 10.0088 23.2919 9.98316C23.3366 9.9566 23.3603 9.94237 23.3632 9.94047L23.366 9.9362L23.3803 9.92908L23.3945 9.92197L23.4088 9.91485L23.423 9.90773L23.4259 9.90347L23.4302 9.90062L23.4345 9.89777L23.4373 9.8935L23.4515 9.88923L23.4658 9.88639L23.463 9.90773L23.4587 9.92908L23.4515 9.95043L23.4444 9.97177L23.4373 9.986L23.4302 10.0002L23.423 10.0216C23.4183 10.0358 23.4135 10.0548 23.4088 10.0785C23.404 10.1022 23.3589 10.1971 23.2734 10.3631C23.1879 10.5292 23.081 10.6976 22.9528 10.8683C22.8245 11.0391 22.7096 11.1681 22.6079 11.2554C22.5053 11.3436 22.4374 11.4053 22.4041 11.4404C22.3709 11.4765 22.3305 11.5097 22.283 11.54L22.2117 11.587L22.1975 11.5941L22.1832 11.6012L22.1804 11.6055L22.1761 11.6083L22.1718 11.6112L22.169 11.6155L22.1547 11.6226L22.1405 11.6297L22.1376 11.634L22.1333 11.6368L22.1291 11.6396L22.1262 11.6439L22.1234 11.6482L22.1191 11.651L22.1148 11.6539L22.112 11.6582H22.1832L22.5822 11.5728C22.8483 11.5158 23.1024 11.4471 23.3447 11.3664L23.7294 11.2383L23.7722 11.2241L23.7936 11.217L23.8078 11.2099L23.8221 11.2028L23.8363 11.1956L23.8506 11.1885L23.8791 11.1843L23.9076 11.1814V11.2099L23.9004 11.2127L23.8933 11.217L23.8905 11.2213L23.8862 11.2241L23.8819 11.227L23.8791 11.2312L23.8762 11.2355L23.8719 11.2383L23.8677 11.2412L23.8648 11.2455L23.862 11.2497L23.8577 11.2526L23.8506 11.2668L23.8434 11.281L23.8392 11.2839C23.8373 11.2867 23.7769 11.3674 23.6582 11.5258C23.5394 11.6852 23.4753 11.7658 23.4658 11.7677C23.4563 11.7706 23.443 11.7848 23.4259 11.8104C23.4097 11.837 23.309 11.9428 23.1238 12.1278C22.9385 12.3128 22.7571 12.4774 22.5794 12.6216C22.4008 12.7667 22.3105 12.9451 22.3086 13.1567C22.3058 13.3673 22.2949 13.6054 22.2759 13.8711C22.2569 14.1367 22.2212 14.4237 22.169 14.7321C22.1167 15.0404 22.036 15.3891 21.9267 15.778C21.8175 16.167 21.6845 16.5465 21.5277 16.9165C21.3709 17.2865 21.2071 17.6186 21.036 17.9127C20.865 18.2068 20.7083 18.4558 20.5658 18.6598C20.4233 18.8638 20.2784 19.0559 20.1311 19.2362C19.9839 19.4164 19.7977 19.6195 19.5725 19.8453C19.3464 20.0701 19.2229 20.1934 19.202 20.2153C19.1801 20.2361 19.087 20.3139 18.9227 20.4487C18.7593 20.5843 18.5835 20.72 18.3954 20.8557C18.2082 20.9904 18.0363 21.1028 17.8795 21.1929C17.7228 21.2831 17.5337 21.386 17.3123 21.5017C17.0919 21.6184 16.8535 21.7266 16.5969 21.8262C16.3404 21.9258 16.0697 22.0183 15.7847 22.1037C15.4996 22.1891 15.2241 22.2555 14.9581 22.303C14.6921 22.3504 14.3905 22.3907 14.0532 22.4239L13.5473 22.4737V22.4808H12.621V22.4737L12.4999 22.4666C12.4191 22.4619 12.3526 22.4571 12.3004 22.4524C12.2481 22.4476 12.051 22.4215 11.7089 22.3741C11.3669 22.3267 11.0985 22.2792 10.9038 22.2318C10.709 22.1844 10.4193 22.0942 10.0345 21.9614C9.64972 21.8286 9.32053 21.6943 9.04691 21.5587C8.77425 21.4239 8.60325 21.3386 8.53389 21.3025C8.46548 21.2674 8.38853 21.2238 8.30303 21.1716L8.17477 21.0933L8.17193 21.0891L8.16764 21.0862L8.16337 21.0834L8.16052 21.0791L8.14627 21.072L8.13202 21.0649L8.12918 21.0606L8.12489 21.0577L8.12062 21.0549L8.11777 21.0506L8.11493 21.0464L8.11064 21.0435H8.10352V21.015L8.11777 21.0179L8.13202 21.0222L8.19615 21.0293C8.2389 21.034 8.35528 21.0411 8.54529 21.0506C8.73531 21.0601 8.93718 21.0601 9.15094 21.0506C9.3647 21.0411 9.58322 21.0198 9.80648 20.9866C10.0297 20.9534 10.2934 20.8965 10.5974 20.8158C10.9014 20.7352 11.1807 20.6393 11.4353 20.5283C11.689 20.4164 11.8695 20.3329 11.9769 20.2779C12.0833 20.2238 12.2457 20.1232 12.4642 19.9762L12.792 19.7556L12.7949 19.7513L12.7991 19.7485L12.8034 19.7456L12.8063 19.7414L12.8091 19.7371L12.8134 19.7343L12.8177 19.7314L12.8205 19.7271L12.8348 19.7229L12.849 19.72L12.8519 19.7058L12.8561 19.6916L12.8604 19.6887L12.8633 19.6844L12.7492 19.6773C12.6733 19.6726 12.5996 19.6678 12.5284 19.6631C12.4571 19.6584 12.3455 19.637 12.1935 19.5991C12.0415 19.5611 11.8776 19.5042 11.7018 19.4283C11.5261 19.3524 11.3551 19.2623 11.1888 19.1579C11.0225 19.0535 10.9024 18.9667 10.8283 18.8975C10.7551 18.8291 10.6601 18.7324 10.5432 18.6072C10.4273 18.481 10.3266 18.3515 10.2411 18.2187C10.1556 18.0858 10.0739 17.9326 9.99603 17.759L9.87773 17.5L9.8706 17.4786L9.86348 17.4573L9.8592 17.4431L9.85635 17.4288L9.87773 17.4317L9.89911 17.4359L10.0559 17.4573C10.1604 17.4715 10.3243 17.4763 10.5475 17.4715C10.7708 17.4668 10.9252 17.4573 11.0107 17.4431C11.0962 17.4288 11.1484 17.4193 11.1674 17.4146L11.1959 17.4075L11.2315 17.4004L11.2672 17.3933L11.27 17.389L11.2743 17.3861L11.2786 17.3833L11.2814 17.379L11.2529 17.3719L11.2244 17.3648L11.1959 17.3577L11.1674 17.3506L11.1389 17.3434C11.1199 17.3387 11.0867 17.3292 11.0392 17.315C10.9917 17.3008 10.8634 17.2486 10.6544 17.1584C10.4454 17.0683 10.2791 16.9806 10.1556 16.8952C10.0318 16.8095 9.91374 16.7159 9.8022 16.6148C9.69105 16.5124 9.56897 16.3805 9.43596 16.2192C9.30296 16.0579 9.1842 15.8705 9.07969 15.6571C8.97519 15.4436 8.89681 15.2396 8.84455 15.0451C8.79251 14.8518 8.75817 14.6541 8.74196 14.4545L8.7163 14.1557L8.73055 14.1585L8.7448 14.1628L8.75905 14.1699L8.7733 14.177L8.78755 14.1842L8.8018 14.1913L9.02269 14.2909C9.16995 14.3573 9.35283 14.4142 9.57134 14.4617C9.78986 14.5091 9.92048 14.5352 9.96323 14.5399L10.0274 14.547H10.1556L10.1528 14.5428L10.1485 14.5399L10.1442 14.5371L10.1414 14.5328L10.1385 14.5285L10.1342 14.5257L10.13 14.5229L10.1271 14.5186L10.1129 14.5115L10.0986 14.5044L10.0958 14.5001L10.0915 14.4972L10.0872 14.4944L10.0844 14.4901L10.0701 14.483L10.0559 14.4759L10.053 14.4716C10.0502 14.4697 10.0093 14.4394 9.93046 14.3805C9.85255 14.3208 9.77085 14.2435 9.68535 14.1486C9.59984 14.0537 9.51434 13.9541 9.42883 13.8497C9.34317 13.7451 9.26687 13.6332 9.20082 13.5153C9.13433 13.3967 9.06401 13.2458 8.98991 13.0628C8.91676 12.8806 8.86118 12.697 8.82318 12.512C8.78518 12.327 8.76381 12.1444 8.75905 11.9641C8.7543 11.7839 8.75905 11.6297 8.7733 11.5016C8.78755 11.3735 8.81605 11.2288 8.8588 11.0676C8.90156 10.9063 8.96332 10.7355 9.04406 10.5552L9.16519 10.2849L9.17232 10.2635L9.17944 10.2422L9.18373 10.2393L9.18657 10.235L9.18942 10.2308L9.1937 10.2279L9.19799 10.2308L9.20082 10.235L9.20367 10.2393L9.20795 10.2422L9.21224 10.245L9.21507 10.2493L9.21792 10.2535L9.2222 10.2564L9.22932 10.2706L9.23645 10.2849L9.24074 10.2877L9.24357 10.292L9.43596 10.5054C9.56421 10.6477 9.71623 10.8067 9.89198 10.9822C10.0677 11.1577 10.1651 11.2488 10.1841 11.2554C10.2031 11.263 10.2269 11.2848 10.2554 11.3209C10.2839 11.356 10.3789 11.4399 10.5404 11.5728C10.7019 11.7056 10.9133 11.8598 11.1745 12.0353C11.4358 12.2108 11.7256 12.3839 12.0438 12.5547C12.3621 12.7255 12.7041 12.8796 13.0699 13.0172C13.4357 13.1548 13.6922 13.2449 13.8394 13.2876C13.9867 13.3303 14.2384 13.3848 14.5947 13.4513C14.951 13.5177 15.2194 13.5604 15.3999 13.5793C15.5804 13.5983 15.7039 13.6092 15.7704 13.6121L15.8702 13.6149L15.8673 13.5936L15.863 13.5722L15.8345 13.3943C15.8155 13.2757 15.806 13.1097 15.806 12.8962C15.806 12.6828 15.8227 12.4859 15.8559 12.3057C15.8892 12.1254 15.939 11.9428 16.0055 11.7578C16.072 11.5728 16.1371 11.4243 16.2008 11.3123C16.2654 11.2013 16.3499 11.0747 16.4544 10.9324C16.559 10.7901 16.6943 10.643 16.8606 10.4912C17.0268 10.3394 17.2169 10.2042 17.4306 10.0856C17.6444 9.96703 17.8415 9.8769 18.022 9.81523C18.2025 9.75357 18.3545 9.71324 18.478 9.69427C18.6015 9.6753 18.6633 9.66438 18.6633 9.66154Z" fill="white"/>
</svg>
