<svg width="33" height="32" viewBox="0 0 33 32" fill="none" xmlns="http://www.w3.org/2000/svg">
<rect x="0.685059" y="0.265625" width="31.6081" height="31.6081" rx="15.804" fill="#FF2532"/>
<path d="M16.8742 22.1977L13.3076 22.1311C12.1528 22.1078 10.9952 22.1542 9.86302 21.9135C8.14076 21.554 8.01875 19.7911 7.89108 18.3123C7.71516 16.2333 7.78327 14.1166 8.11525 12.055C8.30266 10.8982 9.04021 10.208 10.1808 10.1328C14.0312 9.86024 17.9071 9.89255 21.7489 10.0197C22.1547 10.0314 22.5632 10.0951 22.9633 10.1676C24.9382 10.5214 24.9863 12.5192 25.1144 14.201C25.242 15.9001 25.1881 17.608 24.9441 19.2955C24.7483 20.6928 24.3738 21.8645 22.793 21.9776C20.8125 22.1255 18.8774 22.2446 16.8912 22.2067C16.8913 22.1977 16.8799 22.1977 16.8742 22.1977ZM14.7774 18.6603C16.2699 17.7845 17.734 16.9234 19.218 16.0535C17.7227 15.1778 16.2614 14.3167 14.7774 13.4468V18.6603Z" fill="white"/>
</svg>
